<mxfile host="app.diagrams.net" modified="2025-03-19T13:54:06.987Z" agent="Mozilla/5.0 (Windows NT 10.0; Win64; x64) AppleWebKit/537.36 (KHTML, like Gecko) Chrome/134.0.0.0 Safari/537.36" version="24.0.2" etag="MO8FleTTZE_P5TLv7zjM" type="github">
  <diagram name="Page-1" id="DyfJaUfJpeaZFGsb5qXl">
    <mxGraphModel>
      <root>
        <mxCell id="0" />
        <mxCell id="1" parent="0" />
      </root>
    </mxGraphModel>
  </diagram>
</mxfile>
